<svg viewBox="0 0 20 20" xmlns="http://www.w3.org/2000/svg" class="flex-none text-white -ml-0.5 h-5 w-5">
    <path fill-rule="evenodd" fill="#fff" clip-rule="evenodd"
        d="M9.713 1.863c.19-.04.385-.04.574 0 .218.046.412.158.575.252l.044.025 5.481 3.128.046.026c.174.099.378.214.534.388.135.15.235.327.297.518.07.22.07.454.07.658V13.142c0 .204 0 .438-.07.658a1.43 1.43 0 01-.297.518c-.156.174-.36.29-.534.388l-.046.026-5.481 3.128-.044.025c-.163.094-.357.206-.575.252-.19.04-.385.04-.574 0-.218-.046-.412-.158-.575-.252l-.044-.025-5.482-3.128-.045-.026c-.174-.099-.378-.214-.534-.388a1.432 1.432 0 01-.297-.518c-.07-.22-.07-.454-.07-.658v-6.23-.054c0-.204 0-.438.07-.658.061-.191.162-.368.297-.518.156-.174.36-.29.534-.388l.045-.026L9.094 2.14l.044-.025c.162-.094.357-.206.575-.252zM16 7.343v5.745a5.228 5.228 0 01-.007.308.103.103 0 01-.014.026 4.956 4.956 0 01-.252.151l-5.06 2.888v-6.074L16 7.343zm-6.667 3.044L4 7.343v5.745a5.265 5.265 0 00.007.308c.004.01.009.02.014.026l.027.02c.045.028.108.064.225.132l5.06 2.887v-6.074z"></path>
</svg>